#!OML:ASF Y:\EmotionMaleHayes\Project 1\Capture day 1\Session 1\Male1.ASF
:FULLY-SPECIFIED
:DEGREES
512
root 1.75661 16.9746 -8.40301 6.10069 36.9965 1.80758
lowerback 13.3214 2.08453 -3.23581
upperback 4.69062 2.43148 0.531698
thorax -2.68146 1.22162 2.00192
lowerneck -23.3891 3.49383 7.70915
upperneck 25.4048 1.94808 0.597426
head 12.4148 1.74339 -0.707457
rclavicle 1.96797e-014 -8.74653e-015
rhumerus -46.1646 8.80482 -87.3335
rradius 46.818
rwrist -16.5491
rhand -11.8614 -32.5528
rfingers 7.12502
rthumb 14.1905 -62.0481
lclavicle 1.96797e-014 -8.74653e-015
lhumerus -35.8621 -27.9749 90.6344
lradius 51.3439
lwrist 2.07653
lhand -25.0384 -21.5444
lfingers 7.12502
lthumb 1.47448 8.43023
rfemur -9.91532 -1.72588 29.0967
rtibia 20.4409
rfoot -23.1279 -5.34653
rtoes 20.3395
lfemur -10.7159 3.94118 -13.1892
ltibia 60.3804
lfoot -3.22272 4.36313
ltoes -18.9534
513
root 1.89325 17.0226 -8.23371 5.52787 36.004 0.682216
lowerback 13.3685 2.32271 -2.76992
upperback 4.63585 2.80111 0.595736
thorax -2.76949 1.40652 1.7449
lowerneck -23.5384 3.71294 8.06777
upperneck 25.5422 2.1859 0.328884
head 12.5182 1.84977 -0.824244
rclavicle 8.07066e-014 2.38542e-015
rhumerus -45.3074 11.0268 -88.9825
rradius 48.6659
rwrist -16.0364
rhand -11.7313 -31.8746
rfingers 7.12502
rthumb 14.3159 -61.361
lclavicle 8.07066e-014 2.38542e-015
lhumerus -36.9936 -26.2882 91.0611
lradius 48.8878
lwrist 0.761018
lhand -23.4232 -19.5623
lfingers 7.12502
lthumb 3.03442 10.3958
rfemur -8.00777 -1.07169 30.0378
rtibia 18.5658
rfoot -23.0628 -4.5809
rtoes 20.4072
lfemur -13.0945 4.96414 -12.4981
ltibia 61.2003
lfoot -4.3029 4.54936
ltoes -27.3796
514
root 2.02868 17.0633 -8.06131 5.06327 34.9674 -0.442832
lowerback 13.3039 2.57794 -2.34137
upperback 4.55552 3.19269 0.695808
thorax -2.82329 1.60106 1.54637
lowerneck -23.5973 3.93086 8.42297
upperneck 25.5924 2.45207 -0.000558109
head 12.5724 1.95711 -0.960444
rclavicle -1.08338e-014 -1.11319e-014
rhumerus -44.3398 13.3072 -90.4497
rradius 50.3858
rwrist -15.5818
rhand -11.9125 -31.0216
rfingers 7.12502
rthumb 14.1413 -60.5204
lclavicle -1.08338e-014 -1.11319e-014
lhumerus -37.961 -24.7756 91.3126
lradius 46.4602
lwrist -0.294626
lhand -19.8374 -17.9151
lfingers 7.12502
lthumb 6.49681 11.9652
rfemur -6.34936 -0.384778 31.0646
rtibia 16.7926
rfoot -22.9306 -4.06996
rtoes 19.9963
lfemur -15.4431 5.25098 -11.5812
ltibia 61.2964
lfoot -6.05116 4.8378
ltoes -21.4444
515
root 2.16668 17.0996 -7.8922 4.86253 34.0043 -1.15563
lowerback 13.2617 2.82848 -2.18221
upperback 4.448 3.54128 0.747456
thorax -2.92334 1.77391 1.45386
lowerneck -23.5406 4.1006 8.72848
upperneck 25.5527 2.70521 -0.405006
head 12.5685 2.04103 -1.12169
rclavicle -1.06847e-014 -2.98177e-014
rhumerus -43.482 15.5821 -91.699
rradius 52.2392
rwrist -15.1353
rhand -12.2821 -30.5184
rfingers 7.12502
rthumb 13.7851 -60.0417
lclavicle -1.06847e-014 -2.98177e-014
lhumerus -38.9293 -23.4653 91.6452
lradius 43.9738
lwrist -1.59569
lhand -17.2771 -16.5202
lfingers 7.12502
lthumb 8.96793 13.2692
rfemur -4.84824 0.0687512 31.6646
rtibia 15.188
rfoot -22.9622 -3.37256
rtoes 20.2054
lfemur -17.8177 5.8047 -11.2141
ltibia 61.3594
lfoot -7.35911 5.67602
ltoes -25.0811
516
root 2.31301 17.1272 -7.72941 4.99073 33.1261 -1.41721
lowerback 13.145 3.04605 -2.14085
upperback 4.31841 3.82597 0.615906
thorax -2.99679 1.91515 1.24991
lowerneck -23.4688 4.25756 9.01687
upperneck 25.5491 2.93424 -0.759237
head 12.5761 2.12107 -1.26513
rclavicle 2.43511e-015 2.90226e-014
rhumerus -42.7088 17.6375 -92.805
rradius 54.2406
rwrist -14.4336
rhand -12.4938 -30.2397
rfingers 7.12502
rthumb 13.5811 -59.7767
lclavicle 2.43511e-015 2.90226e-014
lhumerus -39.9287 -22.022 91.759
lradius 41.6419
lwrist -2.98245
lhand -14.1083 -15.2772
lfingers 7.12502
lthumb 12.0247 14.3574
rfemur -3.473 -0.157212 31.624
rtibia 13.7411
rfoot -22.963 -1.9532
rtoes 20.2748
lfemur -20.2224 6.14175 -11.4413
ltibia 61.2469
lfoot -8.06588 6.24224
ltoes -27.2757
517
root 2.46383 17.1412 -7.56545 4.93293 32.1696 -2.0418
lowerback 12.9482 3.21817 -1.69099
upperback 4.19664 4.10494 0.505276
thorax -2.99056 2.05324 0.84599
lowerneck -23.2844 4.46202 9.25395
upperneck 25.4453 3.23764 -1.0262
head 12.5252 2.23869 -1.35482
rclavicle 3.65267e-015 2.78795e-014
rhumerus -41.7235 19.6737 -93.7816
rradius 56.092
rwrist -13.5455
rhand -12.405 -30.0035
rfingers 7.12502
rthumb 13.6667 -59.5348
lclavicle 3.65267e-015 2.78795e-014
lhumerus -40.8239 -20.1616 91.3507
lradius 39.5283
lwrist -3.78844
lhand -9.39148 -14.8679
lfingers 7.12502
lthumb 16.5696 14.4447
rfemur -2.12486 -0.81316 31.8001
rtibia 12.4005
rfoot -22.5778 -0.135152
rtoes 19.2885
lfemur -22.6696 6.81689 -11.3919
ltibia 61.1591
lfoot -8.09476 7.10658
ltoes -33.7232
518
root 2.61454 17.1453 -7.39858 4.5775 31.0455 -3.03113
lowerback 12.8242 3.43878 -0.929166
upperback 4.14031 4.48799 0.461406
thorax -2.93339 2.24269 0.321969
lowerneck -23.1061 4.69636 9.53768
upperneck 25.2032 3.57199 -1.32009
head 12.4261 2.36734 -1.45681
rclavicle -1.64308e-014 -1.19706e-014
rhumerus -40.5581 21.8035 -94.638
rradius 57.8894
rwrist -12.9272
rhand -13.0617 -30.236
rfingers 7.12502
rthumb 13.0337 -59.8088
lclavicle -1.64308e-014 -1.19706e-014
lhumerus -42.0117 -19.1948 91.362
lradius 37.3438
lwrist -6.55374
lhand -8.49994 -14.2937
lfingers 7.12502
lthumb 17.4278 14.945
rfemur -0.728351 -1.55475 32.273
rtibia 11.2284
rfoot -22.0517 1.77176
rtoes 17.8275
lfemur -24.7765 7.04441 -10.5808
ltibia 60.4695
lfoot -8.95456 6.64605
ltoes -25.868
